<svg xmlns="http://www.w3.org/2000/svg" xmlns:xlink="http://www.w3.org/1999/xlink" viewBox="0 0 759.2 704.07"><defs><style>.cls-1,.cls-6,.cls-8{fill:none;}.cls-2{isolation:isolate;}.cls-3{fill:#e9ecee;}.cls-4{opacity:0.1;}.cls-5{clip-path:url(#clip-path);}.cls-6,.cls-8{stroke:#e0a53b;}.cls-6{stroke-linecap:round;stroke-linejoin:round;stroke-width:5px;}.cls-7{opacity:0.4;}.cls-8{stroke-miterlimit:10;}.cls-22,.cls-24,.cls-26,.cls-37,.cls-44,.cls-48,.cls-49,.cls-51,.cls-53,.cls-55,.cls-57,.cls-9{mix-blend-mode:multiply;}.cls-10{fill:#d0d2d3;}.cls-11{fill:#41546c;}.cls-12{fill:url(#Gradiente_sem_nome_6);}.cls-13{fill:#e2ad4c;}.cls-14{fill:url(#Gradiente_sem_nome_3);}.cls-15{fill:#0b4f76;}.cls-16{fill:url(#Gradiente_sem_nome_6-2);}.cls-17{fill:#e9d4d3;}.cls-18{fill:url(#Gradiente_sem_nome_3-2);}.cls-19{fill:url(#Gradiente_sem_nome_6-3);}.cls-20{fill:url(#Gradiente_sem_nome_3-3);}.cls-21{fill:#cfd1d2;}.cls-22,.cls-24{fill:#cbcdce;}.cls-23{fill:#db8d99;}.cls-24,.cls-26,.cls-37,.cls-48,.cls-49,.cls-51,.cls-53,.cls-55,.cls-57{opacity:0.5;}.cls-25{fill:#545e75;}.cls-26{fill:#d6c198;}.cls-27{fill:#9298a7;}.cls-28,.cls-30{fill:#fff;}.cls-28,.cls-29{opacity:0.6;}.cls-31,.cls-37{fill:#d4d4d5;}.cls-32{fill:#babcbe;}.cls-33{fill:#272425;}.cls-34{fill:#8d8f92;}.cls-35{fill:#59595b;}.cls-36{fill:#6d6e70;}.cls-38{fill:#3c796a;}.cls-39{fill:#719d92;}.cls-40{fill:#434244;}.cls-41{fill:#1c3731;}.cls-42{fill:#313131;}.cls-43{fill:#f2d27d;}.cls-44{fill:#9a9a9a;}.cls-45{fill:#2c594e;}.cls-46{fill:#152b46;}.cls-47{fill:#091f51;}.cls-48{fill:#13273f;}.cls-50,.cls-51{fill:#e4bb97;}.cls-52{fill:#e0a53b;}.cls-53{fill:#b88831;}.cls-54{fill:#e4b45c;}.cls-55{fill:#e7ad42;}.cls-56{fill:#4e2b07;}.cls-57{fill:#910e36;}</style><clipPath id="clip-path"><circle class="cls-1" cx="381.29" cy="357.64" r="332.78"/></clipPath><linearGradient id="Gradiente_sem_nome_6" x1="480.33" y1="610.19" x2="655.82" y2="610.19" gradientUnits="userSpaceOnUse"><stop offset="0" stop-color="#2c415c"/><stop offset="1" stop-color="#152b46"/></linearGradient><radialGradient id="Gradiente_sem_nome_3" cx="65.19" cy="68.38" r="232.06" gradientTransform="translate(207.29 -82.3) rotate(35.03)" gradientUnits="userSpaceOnUse"><stop offset="0" stop-color="#e0a53b"/><stop offset="0.4" stop-color="#d39c38"/><stop offset="1" stop-color="#b88831"/></radialGradient><linearGradient id="Gradiente_sem_nome_6-2" x1="699.95" y1="148.71" x2="972.63" y2="148.71" gradientTransform="translate(-153.78 -348.04) rotate(22.54)" xlink:href="#Gradiente_sem_nome_6"/><radialGradient id="Gradiente_sem_nome_3-2" cx="756.94" cy="230.29" r="142.06" gradientTransform="matrix(1, 0, 0, 1, 0, 0)" xlink:href="#Gradiente_sem_nome_3"/><linearGradient id="Gradiente_sem_nome_6-3" x1="47.72" y1="496.79" x2="103.67" y2="496.79" xlink:href="#Gradiente_sem_nome_6"/><radialGradient id="Gradiente_sem_nome_3-3" cx="144.3" cy="528.56" r="68.04" gradientTransform="matrix(1, 0, 0, 1, 0, 0)" xlink:href="#Gradiente_sem_nome_3"/></defs><title>tut-1</title><g class="cls-2"><g id="Camada_2" data-name="Camada 2"><g id="Camada_1-2" data-name="Camada 1"><circle class="cls-3" cx="381.29" cy="357.64" r="332.78"/><g class="cls-4"><g class="cls-5"><line class="cls-6" x1="241.11" y1="144.6" x2="222.48" y2="127.12"/><line class="cls-6" x1="223.06" y1="145.18" x2="240.54" y2="126.55"/><line class="cls-6" x1="262.52" y1="412.68" x2="243.89" y2="395.2"/><line class="cls-6" x1="244.46" y1="413.26" x2="261.94" y2="394.63"/><line class="cls-6" x1="35.79" y1="562.46" x2="17.16" y2="544.98"/><line class="cls-6" x1="17.73" y1="563.04" x2="35.21" y2="544.41"/><line class="cls-6" x1="27.65" y1="119.09" x2="9.02" y2="101.62"/><line class="cls-6" x1="9.6" y1="119.67" x2="27.07" y2="101.04"/><line class="cls-6" x1="690.33" y1="144.14" x2="671.69" y2="126.66"/><line class="cls-6" x1="672.27" y1="144.72" x2="689.75" y2="126.09"/><line class="cls-6" x1="470.49" y1="239.19" x2="451.86" y2="221.72"/><line class="cls-6" x1="452.44" y1="239.78" x2="469.92" y2="221.14"/><line class="cls-6" x1="561.35" y1="446.65" x2="542.71" y2="429.18"/><line class="cls-6" x1="543.29" y1="447.23" x2="560.77" y2="428.6"/><line class="cls-6" x1="546.87" y1="615.65" x2="528.24" y2="598.17"/><line class="cls-6" x1="528.82" y1="616.23" x2="546.29" y2="597.6"/><polygon class="cls-6" points="379.58 172.57 366.75 150.38 353.96 172.58 341.16 194.78 366.78 194.76 392.41 194.75 379.58 172.57"/><polygon class="cls-6" points="337.16 443.79 324.33 421.6 311.54 443.8 298.74 466 324.37 465.98 349.99 465.97 337.16 443.79"/><polygon class="cls-6" points="484.19 527.07 471.36 504.88 458.57 527.09 445.77 549.29 471.39 549.27 497.02 549.26 484.19 527.07"/><polygon class="cls-6" points="568.75 356.73 575.37 331.97 550.63 338.63 525.88 345.27 544.01 363.38 562.14 381.49 568.75 356.73"/><polygon class="cls-6" points="147.36 69.28 153.98 44.52 129.23 51.17 104.48 57.82 122.61 75.92 140.74 94.04 147.36 69.28"/><polygon class="cls-6" points="129.81 604.27 136.43 579.51 111.69 586.17 86.93 592.82 105.07 610.92 123.2 629.03 129.81 604.27"/><polygon class="cls-6" points="594.72 96.94 616.9 84.11 594.7 71.32 572.5 58.52 572.52 84.14 572.53 109.77 594.72 96.94"/><polygon class="cls-6" points="129.24 352.95 151.43 340.12 129.23 327.33 107.03 314.52 107.05 340.15 107.06 365.78 129.24 352.95"/><circle class="cls-6" cx="403.45" cy="310.99" r="19.44"/><circle class="cls-6" cx="305.22" cy="94.04" r="19.44"/><circle class="cls-6" cx="317.62" cy="667.81" r="19.44"/><path class="cls-6" d="M389.06,638.75a19.44,19.44,0,0,1,38.88,0"/><path class="cls-6" d="M233.89,340.15a19.44,19.44,0,0,1,38.88,0"/><path class="cls-6" d="M29.36,182.3a19.35,19.35,0,1,1,38.71,0"/><path class="cls-6" d="M519.4,214.14a19.35,19.35,0,1,1,0-38.71"/><path class="cls-6" d="M51.28,667.72a19.35,19.35,0,1,1,0-38.71"/><path class="cls-6" d="M259.89,49.43a19.35,19.35,0,1,1,0-38.71"/><circle class="cls-6" cx="41.56" cy="463.24" r="19.44"/><circle class="cls-6" cx="641.07" cy="485.44" r="19.44"/><rect class="cls-6" x="606.73" y="175.45" width="38.67" height="38.67"/><rect class="cls-6" x="169.5" y="194.78" width="38.67" height="38.67"/><rect class="cls-6" x="167.56" y="441.67" width="38.67" height="38.67"/><rect class="cls-6" x="606.73" y="629.03" width="38.67" height="38.67"/><rect class="cls-6" x="446.31" y="10.74" width="38.67" height="38.67"/><path class="cls-6" d="M390.75,403.95c-8.44,0-7-15-17.76-15"/><path class="cls-6" d="M426.26,403.95c-8.44,0-7-15-17.76-15"/><path class="cls-6" d="M390.75,403.95c8.44,0,7-15,17.76-15"/><path class="cls-6" d="M444,389"/><path class="cls-6" d="M426.26,403.95c8.44,0,7-15,17.76-15"/><path class="cls-6" d="M491.92,682.78c-8.44,0-7-15-17.76-15"/><path class="cls-6" d="M527.44,682.78c-8.44,0-7-15-17.76-15"/><path class="cls-6" d="M491.92,682.78c8.44,0,7-15,17.76-15"/><path class="cls-6" d="M545.2,667.81"/><path class="cls-6" d="M527.44,682.78c8.44,0,7-15,17.76-15"/><path class="cls-6" d="M540.36,280.79c-8.44,0-7-15-17.76-15"/><path class="cls-6" d="M575.87,280.79c-8.44,0-7-15-17.76-15"/><path class="cls-6" d="M540.36,280.79c8.44,0,7-15,17.76-15"/><path class="cls-6" d="M593.63,265.82"/><path class="cls-6" d="M575.87,280.79c8.44,0,7-15,17.76-15"/><path class="cls-6" d="M46.45,262.7c-8.44,0-7-15-17.76-15"/><path class="cls-6" d="M82,262.7c-8.44,0-7-15-17.76-15"/><path class="cls-6" d="M46.45,262.7c8.44,0,7-15,17.76-15"/><path class="cls-6" d="M99.72,247.73"/><path class="cls-6" d="M82,262.7c8.44,0,7-15,17.76-15"/><path class="cls-6" d="M393.68,62.28c0,8.44-15,7-15,17.76"/><path class="cls-6" d="M393.68,26.76c0,8.44-15,7-15,17.76"/><path class="cls-6" d="M393.68,62.28c0-8.44-15-7-15-17.76"/><path class="cls-6" d="M378.71,9"/><path class="cls-6" d="M393.68,26.76c0-8.44-15-7-15-17.76"/><path class="cls-6" d="M284.78,248.06c0,8.44-15,7-15,17.76"/><path class="cls-6" d="M284.78,212.54c0,8.44-15,7-15,17.76"/><path class="cls-6" d="M284.78,248.06c0-8.44-15-7-15-17.76"/><path class="cls-6" d="M269.81,194.78"/><path class="cls-6" d="M284.78,212.54c0-8.44-15-7-15-17.76"/><path class="cls-6" d="M580,544.85c0,8.44-15,7-15,17.76"/><path class="cls-6" d="M580,509.33c0,8.44-15,7-15,17.76"/><path class="cls-6" d="M580,544.85c0-8.44-15-7-15-17.76"/><path class="cls-6" d="M565,491.57"/><path class="cls-6" d="M580,509.33c0-8.44-15-7-15-17.76"/><path class="cls-6" d="M213.71,572.83c0,8.44-15,7-15,17.76"/><path class="cls-6" d="M213.71,537.32c0,8.44-15,7-15,17.76"/><path class="cls-6" d="M213.71,572.83c0-8.44-15-7-15-17.76"/><path class="cls-6" d="M198.74,519.56"/><path class="cls-6" d="M213.71,537.32c0-8.44-15-7-15-17.76"/><line class="cls-6" x1="433.3" y1="443.8" x2="477.12" y2="443.8"/><line class="cls-6" x1="2.5" y1="317.17" x2="46.32" y2="317.17"/><line class="cls-6" x1="436.58" y1="113.48" x2="480.4" y2="113.48"/><line class="cls-6" x1="609.31" y1="14.58" x2="653.13" y2="14.58"/><line class="cls-6" x1="177.2" y1="667.72" x2="221.02" y2="667.72"/><line class="cls-6" x1="289.72" y1="583.06" x2="320.71" y2="552.07"/><line class="cls-6" x1="33.22" y1="45.57" x2="64.21" y2="14.58"/><line class="cls-6" x1="631.22" y1="363.22" x2="662.21" y2="332.24"/><g class="cls-7"><polygon class="cls-8" points="407.45 188.89 394.63 166.7 381.84 188.9 369.03 211.11 394.66 211.08 420.28 211.07 407.45 188.89"/><polygon class="cls-8" points="365.04 460.11 352.21 437.92 339.42 460.12 326.62 482.32 352.24 482.3 377.87 482.29 365.04 460.11"/><polygon class="cls-8" points="512.07 543.39 499.24 521.21 486.44 543.41 473.64 565.61 499.27 565.59 524.89 565.58 512.07 543.39"/><polygon class="cls-8" points="596.63 373.05 603.25 348.29 578.5 354.95 553.75 361.6 571.88 379.7 590.01 397.81 596.63 373.05"/><polygon class="cls-8" points="175.23 85.6 181.85 60.84 157.11 67.49 132.35 74.14 150.49 92.25 168.62 110.36 175.23 85.6"/><polygon class="cls-8" points="157.69 620.6 164.3 595.83 139.56 602.49 114.81 609.14 132.94 627.24 151.07 645.35 157.69 620.6"/><polygon class="cls-8" points="622.59 113.26 644.78 100.43 622.58 87.64 600.37 74.84 600.39 100.46 600.41 126.09 622.59 113.26"/><polygon class="cls-8" points="157.12 369.27 179.31 356.44 157.1 343.65 134.9 330.85 134.92 356.47 134.93 382.1 157.12 369.27"/><circle class="cls-8" cx="431.32" cy="327.31" r="19.44"/><circle class="cls-8" cx="333.09" cy="110.36" r="19.44"/><circle class="cls-8" cx="345.5" cy="684.13" r="19.44"/><path class="cls-8" d="M416.94,655.07a19.44,19.44,0,0,1,38.88,0"/><path class="cls-8" d="M261.77,356.47a19.44,19.44,0,0,1,38.88,0"/><path class="cls-8" d="M57.23,198.62a19.35,19.35,0,1,1,38.71,0"/><path class="cls-8" d="M547.28,230.46a19.35,19.35,0,1,1,0-38.71"/><path class="cls-8" d="M79.15,684a19.35,19.35,0,1,1,0-38.71"/><path class="cls-8" d="M287.77,65.75a19.35,19.35,0,1,1,0-38.71"/><circle class="cls-8" cx="69.43" cy="479.56" r="19.44"/><circle class="cls-8" cx="668.94" cy="501.76" r="19.44"/><rect class="cls-8" x="634.61" y="191.77" width="38.67" height="38.67"/><rect class="cls-8" x="197.37" y="211.11" width="38.67" height="38.67"/><rect class="cls-8" x="195.43" y="457.99" width="38.67" height="38.67"/><rect class="cls-8" x="634.61" y="645.35" width="38.67" height="38.67"/><rect class="cls-8" x="474.19" y="27.06" width="38.67" height="38.67"/><path class="cls-8" d="M418.62,420.27c-8.44,0-7-15-17.76-15"/><path class="cls-8" d="M454.14,420.27c-8.44,0-7-15-17.76-15"/><path class="cls-8" d="M418.62,420.27c8.44,0,7-15,17.76-15"/><path class="cls-8" d="M471.89,405.3"/><path class="cls-8" d="M454.14,420.27c8.44,0,7-15,17.76-15"/><path class="cls-8" d="M519.8,699.1c-8.44,0-7-15-17.76-15"/><path class="cls-8" d="M555.32,699.1c-8.44,0-7-15-17.76-15"/><path class="cls-8" d="M519.8,699.1c8.44,0,7-15,17.76-15"/><path class="cls-8" d="M573.07,684.13"/><path class="cls-8" d="M555.32,699.1c8.44,0,7-15,17.76-15"/><path class="cls-8" d="M568.23,297.11c-8.44,0-7-15-17.76-15"/><path class="cls-8" d="M603.75,297.11c-8.44,0-7-15-17.76-15"/><path class="cls-8" d="M568.23,297.11c8.44,0,7-15,17.76-15"/><path class="cls-8" d="M621.51,282.14"/><path class="cls-8" d="M603.75,297.11c8.44,0,7-15,17.76-15"/><path class="cls-8" d="M74.32,279c-8.44,0-7-15-17.76-15"/><path class="cls-8" d="M109.84,279c-8.44,0-7-15-17.76-15"/><path class="cls-8" d="M74.32,279c8.44,0,7-15,17.76-15"/><path class="cls-8" d="M127.6,264.05"/><path class="cls-8" d="M109.84,279c8.44,0,7-15,17.76-15"/><path class="cls-8" d="M421.56,78.6c0,8.44-15,7-15,17.76"/><path class="cls-8" d="M421.56,43.08c0,8.44-15,7-15,17.76"/><path class="cls-8" d="M421.56,78.6c0-8.44-15-7-15-17.76"/><path class="cls-8" d="M406.59,25.32"/><path class="cls-8" d="M421.56,43.08c0-8.44-15-7-15-17.76"/><path class="cls-8" d="M312.66,264.38c0,8.44-15,7-15,17.76"/><path class="cls-8" d="M312.66,228.86c0,8.44-15,7-15,17.76"/><path class="cls-8" d="M312.66,264.38c0-8.44-15-7-15-17.76"/><path class="cls-8" d="M297.69,211.11"/><path class="cls-8" d="M312.66,228.86c0-8.44-15-7-15-17.76"/><path class="cls-8" d="M607.86,561.17c0,8.44-15,7-15,17.76"/><path class="cls-8" d="M607.86,525.65c0,8.44-15,7-15,17.76"/><path class="cls-8" d="M607.86,561.17c0-8.44-15-7-15-17.76"/><path class="cls-8" d="M592.89,507.89"/><path class="cls-8" d="M607.86,525.65c0-8.44-15-7-15-17.76"/><path class="cls-8" d="M241.59,589.16c0,8.44-15,7-15,17.76"/><path class="cls-8" d="M241.59,553.64c0,8.44-15,7-15,17.76"/><path class="cls-8" d="M241.59,589.16c0-8.44-15-7-15-17.76"/><path class="cls-8" d="M226.62,535.88"/><path class="cls-8" d="M241.59,553.64c0-8.44-15-7-15-17.76"/><line class="cls-8" x1="461.18" y1="460.12" x2="505" y2="460.12"/><line class="cls-8" x1="30.37" y1="333.49" x2="74.2" y2="333.49"/><line class="cls-8" x1="464.45" y1="129.8" x2="508.27" y2="129.8"/><line class="cls-8" x1="637.19" y1="30.9" x2="681.01" y2="30.9"/><line class="cls-8" x1="205.07" y1="684.04" x2="248.9" y2="684.04"/><line class="cls-8" x1="317.6" y1="599.38" x2="348.58" y2="568.39"/><line class="cls-8" x1="61.09" y1="61.89" x2="92.08" y2="30.9"/><line class="cls-8" x1="659.1" y1="379.54" x2="690.08" y2="348.56"/></g><path class="cls-6" d="M401.49,547.55a7.66,7.66,0,1,1,2.4-10.56A7.65,7.65,0,0,1,401.49,547.55Z"/><path class="cls-6" d="M341.14,336.91a7.66,7.66,0,1,1,2.4-10.56A7.65,7.65,0,0,1,341.14,336.91Z"/><path class="cls-6" d="M65.17,401.69a7.66,7.66,0,1,1,2.4-10.56A7.65,7.65,0,0,1,65.17,401.69Z"/><path class="cls-6" d="M143.64,160.67a7.66,7.66,0,1,1,2.4-10.56A7.65,7.65,0,0,1,143.64,160.67Z"/><circle class="cls-6" cx="560.77" cy="150.38" r="7.65" transform="translate(6.06 321.77) rotate(-32.18)"/><circle class="cls-6" cx="668.94" cy="423.19" r="7.65" transform="translate(-122.62 421.27) rotate(-32.18)"/></g></g><g class="cls-9"><path class="cls-10" d="M649.78,600.07a53.56,53.56,0,0,1-46.86,60.5,55.61,55.61,0,0,1-61.75-47.29A53.6,53.6,0,0,1,588,552.71,55.62,55.62,0,0,1,649.78,600.07Z"/></g><path class="cls-11" d="M652.5,614c4-18.51-1.88-39.58-12.73-52.73-35.15-42.59-96.47-12.79-109.62,33.41-6,20.92,1.38,43.37-14.82,60.88-9.67,10.44-19.85,18.32-34,20.13,54.87,7.25,119,9.24,158.44-36.66C644.65,633.39,650.86,621.55,652.5,614Z"/><path class="cls-12" d="M654.56,614.13c4-18.51-1.88-39.58-12.73-52.73-35.15-42.6-96.47-12.79-109.62,33.41-6,20.92,1.38,43.37-14.82,60.88-9.67,10.44-19.81,12.73-37.05,19.79,54.87,7.25,122.06,9.59,161.54-36.32C646.71,633.54,652.91,621.69,654.56,614.13Z"/><path class="cls-13" d="M224.52,130.09A69.38,69.38,0,1,0,110.89,50.44c-16.3,23.25-9.64,47.86-6.14,73.84,4,29.38-2.42,55.14-20.32,83,17.64-26.52,41.61-38.75,68.81-45.18C181.31,155.44,206,156.56,224.52,130.09Z"/><path class="cls-14" d="M222.37,128.14A69.39,69.39,0,1,0,108.73,48.49c-16.3,23.25-9.64,47.86-6.14,73.84,4,29.38-5.23,57.62-18.16,84.92,16.57-22.11,39.45-40.71,66.66-47.13C179.16,153.48,203.81,154.61,222.37,128.14Z"/><path class="cls-15" d="M83.3,206.47"/><path class="cls-11" d="M667.71,100.67C644.72,48.94,594.8,8.78,537.8,1,496.33-4.62,458,13.12,441.26,53.6c-29.83,71.88,33.1,141,103.64,139.37A90.68,90.68,0,0,0,592,179.13c13.48-8.3,29.1-24.44,45.76-25.17,12.42-.54,20.4,8,27.14,17.54,3.83,5.39,3.43,21.62,8.16,25.26C681,163.78,680.74,130,667.71,100.67Z"/><path class="cls-16" d="M663.58,101.39c-23-51.72-72.91-91.88-129.91-99.64-41.47-5.65-79.75,12.1-96.55,52.58-29.83,71.88,31.4,139.74,101.93,138.08,17.29-.41,32.4-4.2,47.15-13.28,13.48-8.3,30.79-23.72,47.45-24.44,12.42-.55,15.39,5.56,22.14,15.07,3.83,5.39,12.28,19.73,17.12,27.83C680.84,164.61,676.62,130.73,663.58,101.39Z"/><path class="cls-17" d="M759.2,300.68a41.76,41.76,0,1,1-41.75-41.73A41.74,41.74,0,0,1,759.2,300.68Z"/><path class="cls-18" d="M758.55,300.92a41.75,41.75,0,1,1-41.74-41.75A41.74,41.74,0,0,1,758.55,300.92Z"/><ellipse class="cls-17" cx="76.13" cy="496.64" rx="27.98" ry="27.96"/><path class="cls-19" d="M103.67,496.79a28,28,0,1,1-28-28A28,28,0,0,1,103.67,496.79Z"/><ellipse class="cls-17" cx="125.39" cy="562.28" rx="20" ry="19.99"/><path class="cls-20" d="M145.08,562.39a20,20,0,1,1-20-20A20,20,0,0,1,145.08,562.39Z"/><ellipse class="cls-21" cx="403.78" cy="538.3" rx="173.71" ry="8.92"/><path class="cls-22" d="M454,318.64a10.93,10.93,0,0,1,4.7-3.3,8.65,8.65,0,0,0-1.2,1.18c-5.58,6.79-7.4,15.85,2.75,19.28a32.62,32.62,0,0,0,14.26,1.46l-.4,3.49a31.11,31.11,0,0,1-17.58-2.37C447.22,334.24,448.84,325.35,454,318.64Z"/><path class="cls-23" d="M475.26,314.62s-10.95-1.56-15.6,2c0,0,8.89-1.58,15,.2Z"/><path class="cls-24" d="M477,314.09c-2.16,19.28.11,22.42.11,22.42a9.37,9.37,0,0,1-.3,1.08c-1,2.77-2.76,3.16-2.76,3.16s-1.14-15.08,3-26.66Z"/><polygon class="cls-25" points="198.78 396.15 305.5 396.15 305.62 329.96 198.9 329.71 198.78 396.15"/><rect class="cls-25" x="240.73" y="260.1" width="23.11" height="117.62" transform="translate(-67.23 570.43) rotate(-89.86)"/><path class="cls-26" d="M294.61,385.51c7-5,3.21-49.95,3.21-49.95l-98.92-5.23,1.08-.62,105.64.25-.12,66.19H198.78S287.59,390.49,294.61,385.51Z"/><path class="cls-26" d="M193.49,307.22l79.4.19c-2.05,0-67.78-.11-71.62,3s-.81,13.73-.81,13.73,110.61,3.39,110.6,6.51l-117.62-.28Z"/><path class="cls-27" d="M306.27,310.45s-59-.94-62.15,0,57.28-.48,58.83,2.88,2.53,11,2.53,11Z"/><path class="cls-27" d="M204.64,331.57s-3.13,47.25-2.05,49.79,1.85-45.23,6.09-46.35,13.26-2.31,13.26-2.31Z"/><path class="cls-28" d="M243.78,355.65H228.66c-1.36,0-1.69,5.85,2.29,5.85h10.33c-.31.79-1,.77-1.74.77l-8.61,0c-.67,0-.68,3.84,1.55,3.84h8.58s-.77.81-1.32.81H234c-1.42,0-1.12,3.78,1.49,3.78l4.58,0-3.81,9.6a1.61,1.61,0,0,0,1.5,2.43H248a4.09,4.09,0,0,0,3.43-2.43C261,357.72,248.6,355.65,243.78,355.65Z"/><g class="cls-29"><path class="cls-30" d="M271,355.65h-9.74l3.81-9.6a1.61,1.61,0,0,0-1.5-2.43H253.25a4.05,4.05,0,0,0-3.43,2.43l-3.21,8.09c4.44.16,13.16,2.26,9.78,16.54H265a4.05,4.05,0,0,0,3.43-2.43l4-10.17A1.61,1.61,0,0,0,271,355.65Z"/></g><polygon class="cls-31" points="283.57 447.78 274.1 447.64 218.9 399.64 228.37 399.77 283.57 447.78"/><rect class="cls-32" x="193.45" y="396.19" width="115.54" height="4.67"/><circle class="cls-33" cx="518.12" cy="491.78" r="47.16"/><circle class="cls-34" cx="518.12" cy="491.78" r="30.39"/><circle class="cls-35" cx="518.12" cy="491.78" r="25.32"/><circle class="cls-36" cx="518.12" cy="491.78" r="12.4"/><path class="cls-31" d="M518.17,487.53a3.92,3.92,0,0,1-1,5l0,0a3.91,3.91,0,0,1-5.07-.44l-29.34-31.2a3,3,0,0,1,.4-4.53l9-6.72a3,3,0,0,1,4.45.9Z"/><path class="cls-37" d="M492.09,449.66l-9,6.72a3,3,0,0,0-.4,4.53l4.14,4.41s3.45-10,11.57-3.86,14.81,22.49,15,25.38-4.53,1.87-4.53,1.87l3.2,3.4a3.91,3.91,0,0,0,5.07.44l0,0a3.92,3.92,0,0,0,1-5l-21.62-37A3,3,0,0,0,492.09,449.66Z"/><path class="cls-38" d="M458.23,498.13H486s17.66-37.58,77.69-37.58c0,0-6.71-39.27-57.27-27.44S458.23,498.13,458.23,498.13Z"/><path class="cls-22" d="M469.94,489.69l16,8.44H458.23s-2.37-53.2,48.18-65c11.38-2.66,20.52-2.72,27.88-1.24C532.9,431.83,483.37,427.48,469.94,489.69Z"/><path class="cls-39" d="M558.93,457.6s-37.39.28-64.77,23.64c0,0,17.25-24.49,55.55-27.58,0,0-1.58-13.51-11.85-18.58C537.87,435.08,551.3,437.9,558.93,457.6Z"/><rect class="cls-40" x="233.79" y="480.23" width="20.16" height="12.11"/><circle class="cls-33" cx="307.61" cy="491.78" r="47.16"/><circle class="cls-34" cx="307.61" cy="491.78" r="30.39"/><circle class="cls-35" cx="307.61" cy="491.78" r="25.32"/><circle class="cls-36" cx="307.61" cy="491.78" r="12.4"/><path class="cls-41" d="M458.28,322c-1.19,0-7.51.79-11.85,4.34a40.34,40.34,0,0,0-6.52,6.52,18.06,18.06,0,0,0-.59,8.1c.79,3.95,8.65,19.35,8.65,19.35l8.33-8.3-1.58-11.06s-1.18-5.13,4.34-8.69Z"/><path class="cls-22" d="M439.91,332.85a40.34,40.34,0,0,1,6.52-6.52c4.34-3.56,10.66-4.34,11.85-4.34l.15,2c-2,.66-4.56,1.51-6.86,2.13-7,1.88-8.49,6.52-8.49,6.52s-1.38,6.12-.59,10.07c.53,2.64,9.15,9.48,10.38,14.33L448,360.3s-7.87-15.41-8.65-19.35A18.06,18.06,0,0,1,439.91,332.85Z"/><path class="cls-42" d="M410.46,497.87l-6.66,8.95s-2,3.17-7.56,3.17H359.12s-7.9,0-13.43-2.76-7.13-3.55-12.64-3.55h-20.8s-5.26,1.05-10.4-5.53a100.51,100.51,0,0,1-7.5-11.45h43.44S364.25,499.45,410.46,497.87Z"/><path class="cls-43" d="M477.24,313.5s1.58,0,1.58,5.33-1,16-2,18.76-2.76,3.16-2.76,3.16S472.89,325.15,477.24,313.5Z"/><path class="cls-38" d="M477.24,313.5c-1.39,0-18.13-1.58-23.27,5.14s-6.75,15.6,2.53,19.75a31.11,31.11,0,0,0,17.58,2.37Z"/><polygon class="cls-35" points="309.5 498.92 341.48 498.92 338.44 496.93 307.68 496.93 309.5 498.92"/><polygon class="cls-35" points="305.82 494.83 335.29 494.83 332.7 493.13 304.26 493.13 305.82 494.83"/><path class="cls-40" d="M279.84,400.44s35.94,1.8,53.91-2.25,37.19-6.31,41,.9,7.94,19.39,5.43,21.64-8.77,3.16-13,3.16H273.67s-2.6.45-4.69-6.76S263.13,398.18,279.84,400.44Z"/><path class="cls-44" d="M269,417.12c-1.28-4.43-3.18-10.54-.61-14.1h0c.23,17,11.48,15.45,27.64,13.65s54.6-3.61,68.53-4.21,12.13-9.22,12.13-9.24c3,7,5.55,15.64,3.47,17.5-2.51,2.26-8.77,3.16-13,3.16H273.67S271.07,424.34,269,417.12Z"/><circle class="cls-33" cx="436.95" cy="335.07" r="6.02"/><path class="cls-38" d="M458.41,341.48s-42.65-6.32-33.31,62.27c7,51.65,18.53,67.53,6.68,71.09s-54.84,0-54.84,0-10.27-2-8.68-13.43,11.39-26.86,12.58-41.47H275.59s-33.77,23.3-34.17,78.2h24.47a11.55,11.55,0,0,0,8.84-3.58c4.26-4.15,5.65-5.65,5.65-5.65h48.26s3.94-1,9.38,3.09,10.44,11,17.15,11h75.12a31.74,31.74,0,0,0,23.55-11.19c10-11.72,18.43-31.17,25.14-41.44s19-15,30.47-16.88c0,0-7.34-21.11-20.65-26.16S462.69,367.66,458.41,341.48Z"/><path class="cls-45" d="M354.29,483.84c-1.11-2.49-5.65-13.74-2.08-23.63,4-11.19,4-21.2-16.76-21.2s-50.27,5.3-61.83,21.2c-10,13.74-11.77,22.19-12.07,24.24h-.06s.6-9.4,12.51-26.33,42.3-22.57,63.75-22.57S359.2,446.2,355,458.12s2.38,25.7,2.38,25.7Z"/><path class="cls-22" d="M275.59,419.94H380.84a18.33,18.33,0,0,1-.67,3.49h0s-69.72,6.78-82.88,3.62-27.91,7.37-33.7,17.38-9,32.12-5.84,40,5.15,10.59,12.11,7.37,5.27-7.37,16.85-6.85,40.55,0,40.55,0a19.44,19.44,0,0,1,14.22,4.74c6.85,5.79,22.12,9.48,45.29,10s47.87,3.13,60-5.79,26.72-34.23,27.07-34.84c-5.72,10.41-12.4,23.78-20,32.7A31.74,31.74,0,0,1,430.29,503H355.18c-6.71,0-11.72-6.92-17.15-11s-9.38-3.09-9.38-3.09H280.38s-1.39,1.49-5.65,5.65a11.55,11.55,0,0,1-8.84,3.58H241.43C241.82,443.24,275.59,419.94,275.59,419.94Z"/><path class="cls-22" d="M431.43,371.49c1.18,24.88,16.16,84.12,13,94.39s-7.11,11.46-21.72,13.43-43.1-.1-48.38-5.42h0a12,12,0,0,0,2.63,1s43,3.55,54.84,0,.36-19.44-6.68-71.09c-9.35-68.59,33.31-62.27,33.31-62.27l.25,1.52S430.24,346.61,431.43,371.49Z"/><path class="cls-39" d="M457.56,352s1.52,49.58,20.53,61.19,19.77,8.49,27.71,19.66c0,0-6.52-10.78-12.6-17.17S466.34,406.63,457.56,352Z"/><path class="cls-33" d="M405.48,464.77s.57,7.5,1.11,10c0,0,22.11,1.81,27.36.18s4.53-5.08.54-7.25-14.85-4.2-14.85-4.2S408.92,465.13,405.48,464.77Z"/><path class="cls-40" d="M397.62,467.56s.57,7.5,1.11,10c0,0,22.11,1.81,27.36.18s4.53-5.08.55-7.25-14.86-4.2-14.86-4.2S401.06,467.92,397.62,467.56Z"/><path class="cls-46" d="M311.69,369.12s-7.31,30.53,16.4,35.07,49.45-5.81,50-.76,27.47,61.47,27.47,61.47,8.16,3.9,18.76-1.15c0,0-22.26-70.91-24.78-76.46s-18.19-15.38-28.73-12.75S349.78,380.22,311.69,369.12Z"/><path class="cls-47" d="M310.83,369.12s-6.45,30.53,17.26,35.07,49.45-5.81,50-.76,18.72,64.13,18.72,64.13,10.52,3.9,21.12-1.15c0,0-15.87-73.57-18.39-79.12s-18.19-15.38-28.73-12.75S350.45,372.9,310.83,369.12Z"/><path class="cls-48" d="M383.25,404.94c1-1.51.5-10.59-18.67-6.56s-37.59,2.27-43.64-2.77-10.09-20.95,11.1-15.9,38.72-5.18,38.73-5.18h0c-10.54,2.63-20.31-1.63-59.93-5.41,0,0-6.45,30.53,17.26,35.07s49.45-5.81,50-.76c.41,4.09,16,54.75,18,61.58C393.24,454.52,382.32,406.34,383.25,404.94Z"/><g class="cls-49"><path class="cls-47" d="M407.19,469h0Z"/><path class="cls-47" d="M408.61,468.92a25.9,25.9,0,0,0,9.27-2.52s-14.28-64.86-17.37-76c0,.14,15.85,72.72,14.7,74.64A9.87,9.87,0,0,1,408.61,468.92Z"/></g><path class="cls-50" d="M426.78,321.33s11.43-1.65,17.11,3.27,4.35,11.71,2.57,13.24-3.81,1.65-4.7.38.51-1.78.13-4.7-3.43-5.84-5.33-3.56-6.2,3.88-10.16,3.81Z"/><path class="cls-51" d="M436.56,330c1.91-2.28,5,.64,5.33,3.56s-1,3.43-.13,4.7,2.92,1.14,4.7-.38c-2.27,1.06-2.85,1.17-3-.2s2-4.33-2-7.89c-2.39-2.1-5.43-2.11-9,.23s-4.69-.1-4.32-4.3,3-4.59,3.08-4.61a35.51,35.51,0,0,0-4.44.26l-.38,12.45C430.36,333.85,434.66,332.26,436.56,330Z"/><path class="cls-52" d="M306.71,366.65s38,21.64,70.83,5c0,0,11.6-72.66-23.21-89.31,0,0-13.18-5.55-19.14-5.15S303.37,311.09,306.71,366.65Z"/><path class="cls-50" d="M335.16,280.32s10.6,8.07,19.17,4.54V269.22h-19Z"/><path class="cls-51" d="M335.3,269.22l-.08,6.14c6.85,2.5,19.11,3.08,19.11,3.08v-9.21Z"/><path class="cls-53" d="M377.54,371.64a187.63,187.63,0,0,0,1.24-41c-2.4-2.7-4.24-5.45-4.49-7.71-.76-6.81-14.78-27.9-14.78-27.9s-4.52-6.91-11.71-4.64-19.3,10.22-15.14,22.32,13.62,19.3,20.81,28,20.05,12.11,18.17,15.89-33.3-8.33-33.3-8.33,23.46,15.52,28.38,17.79-7.19,7.19-18.92,5.3-43.87,2.4-40-35.35a155.52,155.52,0,0,0-1.13,30.61S344.74,388.29,377.54,371.64Z"/><path class="cls-54" d="M424.94,340.76c-43.29,5.73-48.29,6.2-52.24,6.88-6.84,1.17-20.06-15.38-28.27-24.76s-11.06-20.08-6.38-24c0,0,5.93-6.61,12.77-7s12.76,6.26,15.5,12.22S379,325.79,379,325.79l48.33-5.88S428,335.46,424.94,340.76Z"/><path class="cls-55" d="M419.42,339.62c-6.25,2.64-35.67,5.28-41.72,4.52s-8.7-2.27-10.22-8.32c0,0-7.57,2.65-13.24-5.68s-14.08-18.67-15.14-25,5.36-12.2,16.3-12.57a10.7,10.7,0,0,0-4.59-.77c-6.83.43-12.77,7-12.77,7-4.67,3.93-1.82,14.62,6.38,24s21.43,25.94,28.27,24.76c4-.68,9-1.14,52.24-6.88,3-5.3,2.37-20.84,2.37-20.84S425.67,337,419.42,339.62Z"/><path class="cls-50" d="M386.51,239.9h0c-4.61-12.39-6.68-30-31.45-27.73-17.92,1.67-32.58,14.59-32.58,32.58a32.58,32.58,0,0,0,64.75,5.16c2.71.14,5.18.08,5.89-.48C394.88,248,387.63,240.25,386.51,239.9Z"/><path class="cls-56" d="M327.18,261.62s-.63-11.15,7.9-8.39c9.58,3.1,17.67-8.25,17.67-8.25l-.82,6.8S377,241,383.86,233s-3.71-18.54-8.47-19.07-29-7-42.91,8.47S319.07,247.78,327.18,261.62Z"/><path class="cls-47" d="M357.12,241.59s17.5-11.94,26.81-23.94c0,0,28.6-4.24,28.6-1.77S390.17,241.16,357.12,241.59Z"/><path class="cls-57" d="M412.54,215.88c-2.85,4.06-11.12,10.82-28.68,17.13s-12.61-1-12.61-1l-.4-1.09c-7.2,6.2-13.73,10.65-13.73,10.65C390.17,241.16,412.54,218.35,412.54,215.88Z"/><path class="cls-52" d="M323.08,255.09s44.9-10.6,60.86-37.44c0,0-6.65-26.14-43.24-15.19S323.08,255.09,323.08,255.09Z"/><path class="cls-53" d="M325.58,232.74c-1.52-21.08,11.41-29,11.62-29.08-31.82,12.5-14.12,51.42-14.12,51.42s44.9-10.6,60.86-37.44C364.41,241.75,327.11,254,325.58,232.74Z"/></g></g></g></svg>